<?xml version="1.0" standalone="no"?>
<svg viewBox="0 0 200 200" xmlns="http://www.w3.org/2000/svg">
  <path fill="#08BDBA" d="M23.6,-38C34.3,-34.6,49.4,-35.9,54.5,-30.4C59.6,-24.8,54.7,-12.4,58.2,2C61.6,16.3,73.2,32.7,69.4,40.4C65.5,48.1,46.1,47.2,31.9,54.4C17.8,61.7,8.9,77.1,-2.5,81.5C-14,85.9,-28,79.3,-33.2,66.9C-38.4,54.5,-34.9,36.3,-44.3,24.2C-53.7,12.1,-76.1,6,-78.3,-1.3C-80.5,-8.6,-62.5,-17.1,-49.6,-23.2C-36.7,-29.3,-28.9,-32.9,-21.5,-38.2C-14.1,-43.5,-7,-50.4,-0.3,-49.9C6.4,-49.3,12.8,-41.3,23.6,-38Z" transform="translate(100 100)" />
</svg>
